<?xml version="1.0" encoding="UTF-8" standalone="no"?> <!-- Created with Vectornator for iOS (http://vectornator.io/) --><!DOCTYPE svg PUBLIC "-//W3C//DTD SVG 1.1//EN" "http://www.w3.org/Graphics/SVG/1.1/DTD/svg11.dtd">
<svg style="fill-rule:evenodd;clip-rule:evenodd;stroke-linecap:round;stroke-linejoin:round;" xmlns:vectornator="http://vectornator.io" xmlns:xlink="http://www.w3.org/1999/xlink" xmlns="http://www.w3.org/2000/svg" xml:space="preserve" version="1.1" viewBox="0 0 1024 1024" width="200" height="200">
<metadata>
<vectornator:setting key="DisplayWhiteBackground" value="0"/>
<vectornator:setting key="RulersVisible" value="1"/>
<vectornator:setting key="SnapToEdges" value="0"/>
<vectornator:setting key="Units" value="Pixels"/>
<vectornator:setting key="DynamicGuides" value="0"/>
<vectornator:setting key="SnapToPoints" value="0"/>
<vectornator:setting key="SnapToGrid" value="0"/>
<vectornator:setting key="SnapToGuides" value="1"/>
<vectornator:setting key="GridSpacing" value="1"/>
</metadata>
<defs/>
<g id="Layer 1" vectornator:layerName="Layer 1">
<path stroke="#000000" stroke-width="9.94" d="M88+512C88+277.831+277.831+88+512+88C746.169+88+936+277.831+936+512C936+746.169+746.169+936+512+936C277.831+936+88+746.169+88+512Z" fill="#ffffff" stroke-linecap="round" opacity="1" stroke-linejoin="round"/>
</g>
<g id="Layer 2" vectornator:layerName="Layer 2">
<path d="M129.848+341.092C105.281+393.999+92.995+452.258+92.995+514.331C92.995+744.077+280.733+931.143+512.278+931.143C743.824+931.143+931.495+744.077+931.495+514.331C931.495+498.428+930.496+482.769+928.745+467.33C896.018+669.113+730.66+822.676+531.434+822.676C308.688+822.676+128.128+630.793+128.128+394.084C128.128+375.935+127.787+358.648+129.848+341.092Z" opacity="1" fill="#cccbcb"/>
</g>
</svg>
