<?xml version="1.0" encoding="UTF-8" standalone="no"?> <!-- Created with Vectornator for iOS (http://vectornator.io/) --><!DOCTYPE svg PUBLIC "-//W3C//DTD SVG 1.1//EN" "http://www.w3.org/Graphics/SVG/1.1/DTD/svg11.dtd">
<svg style="fill-rule:evenodd;clip-rule:evenodd;stroke-linecap:round;stroke-linejoin:round;" xmlns:vectornator="http://vectornator.io" xmlns:xlink="http://www.w3.org/1999/xlink" xmlns="http://www.w3.org/2000/svg" xml:space="preserve" version="1.1" viewBox="0 0 1000 1400" width="1000" height="1400">
<metadata>
<vectornator:setting key="DisplayWhiteBackground" value="0"/>
<vectornator:setting key="RulersVisible" value="1"/>
<vectornator:setting key="SnapToEdges" value="0"/>
<vectornator:setting key="Units" value="Pixels"/>
<vectornator:setting key="DynamicGuides" value="0"/>
<vectornator:setting key="SnapToPoints" value="0"/>
<vectornator:setting key="SnapToGrid" value="0"/>
<vectornator:setting key="SnapToGuides" value="1"/>
<vectornator:setting key="GridSpacing" value="1"/>
</metadata>
<defs/>
<g id="Layer 2" vectornator:layerName="Layer 2" visibility="hidden">
<path d="M37.569+164.865C74.0148+235.498+73.2357+392.52+73.2357+392.52L84.8462+399.95L91.4595+508.056L104.273+523.113L141.166+996.995L152.768+1012.86L169.757+1288.45L184.26+1296.97L185.918+1346.12C185.918+1346.12+263.691+1387.61+499.915+1392.37C770.077+1397.82+813.01+1342.95+813.01+1342.95L810.87+1301.64L827.988+1286.32L844.392+1017.83L857.114+1002.77L893.516+531.761L905.649+515.389L915.087+408.973L924.524+390.712C924.524+390.712+927.895+225.735+962.422+155.67C962.422+155.67+856.63+221.784+492.784+215.01C131.29+208.281+37.569+164.865+37.569+164.865Z" opacity="1" fill="#d9190b"/>
<path d="M1014.52+711.563" opacity="1" fill="#d9190b"/>
</g>
<g id="Layer 3" vectornator:layerName="Layer 3" visibility="hidden">
<path d="M627.989+216.772L709.761+433.701L713.156+559.478C713.156+559.478+795.517+544.667+810.051+626.949C830.637+743.489+799.921+1015.73+799.921+1015.73C708.233+1045.37+578.926+1043.24+578.926+1043.24C578.926+1043.24+738.197+1041.3+760.459+1107.4C795.091+1210.24+779.267+1302.95+779.267+1302.95C745.287+1321.89+647.733+1328.8+647.733+1328.8L652.901+1384.32C652.901+1384.32+781.082+1380.03+810.34+1345.72C818.599+1336.04+813.818+1304.77+813.818+1304.77C813.818+1304.77+834.432+1274.92+829.755+1284.68C825.078+1294.43+845.692+1014.1+845.692+1014.1L857.645+1002.57L893.082+524.68L907.863+511.845L914.987+397.453L925.532+387.312C925.532+387.312+932.901+215.308+958.347+167.123" opacity="1" fill="#a90500"/>
</g>
<g id="Layer 4" vectornator:layerName="Layer 4" visibility="hidden">
<path d="M179.374+1156.58C175.983+1098.8+176.683+1051.5+180.936+1050.94C185.189+1050.37+191.385+1096.75+194.776+1154.52C198.166+1212.3+197.466+1259.6+193.213+1260.16C188.96+1260.73+182.764+1214.35+179.374+1156.58Z" opacity="0.477021" fill="#ffffff"/>
<path d="M820.819+1152.82C824.21+1095.04+823.51+1047.75+819.257+1047.18C815.004+1046.61+808.807+1092.99+805.417+1150.77C802.027+1208.54+802.727+1255.84+806.98+1256.41C811.233+1256.97+817.429+1210.6+820.819+1152.82Z" opacity="0.477021" fill="#ffffff"/>
<path d="M141.058+769.864C132.927+654.623+129.743+560.161+133.946+558.876C138.15+557.592+148.149+649.972+156.28+765.213C164.411+880.454+167.595+974.916+163.392+976.2C159.188+977.485+149.189+885.105+141.058+769.864Z" opacity="0.477021" fill="#ffffff"/>
<path d="M860.187+771.907C869.404+656.737+873.479+562.305+869.287+560.986C865.096+559.667+854.226+651.961+845.009+767.131C835.792+882.3+831.717+976.733+835.909+978.052C840.1+979.37+850.97+887.076+860.187+771.907Z" opacity="0.477021" fill="#ffffff"/>
<path d="M104.347+463.216C103.119+440.521+104.396+422.146+107.199+422.175C110.002+422.204+113.27+440.626+114.498+463.321C115.726+486.016+114.449+504.391+111.646+504.362C108.843+504.333+105.575+485.911+104.347+463.216Z" opacity="0.477021" fill="#ffffff"/>
<path d="M896.171+461.659C898.779+439.065+898.623+420.653+895.823+420.533C893.023+420.413+888.638+438.631+886.03+461.224C883.421+483.818+883.577+502.23+886.377+502.35C889.178+502.47+893.562+484.252+896.171+461.659Z" opacity="0.477021" fill="#ffffff"/>
<path d="M199.468+1326.08C199.335+1318.16+200.744+1312.28+202.616+1312.94C204.487+1313.59+206.111+1320.54+206.244+1328.46C206.377+1336.37+204.968+1342.26+203.096+1341.6C201.225+1340.94+199.601+1333.99+199.468+1326.08Z" opacity="0.477021" fill="#ffffff"/>
<path d="M800.922+1325.48C801.055+1317.56+799.646+1311.68+797.774+1312.34C795.903+1313+794.279+1319.95+794.146+1327.86C794.013+1335.78+795.422+1341.66+797.294+1341C799.165+1340.34+800.789+1333.39+800.922+1325.48Z" opacity="0.477021" fill="#ffffff"/>
<path d="M80.128+251.174C86.5938+297.168+88.5626+378.662+92.6151+378.965C98.2844+379.389+99.0757+297.161+92.6099+251.166C86.1442+205.172+65.4257+187.358+65.4257+187.358C65.4257+187.358+73.6623+205.179+80.128+251.174Z" opacity="0.477021" fill="#ffffff"/>
<path d="M921.847+251.257C915.381+297.251+913.413+378.746+909.36+379.048C903.691+379.472+902.899+297.244+909.365+251.25C915.831+205.255+936.549+187.442+936.549+187.442C936.549+187.442+928.313+205.262+921.847+251.257Z" opacity="0.477021" fill="#ffffff"/>
<path d="M213.006+199.984L329.601+436.144L343.158+437.23L355.94+564.953L364.075+564.953L385.637+1042.29L398.644+1043.92L405.816+1329.11L413.063+1330.47L412.339+1385.3L488.023+1393.09L513.93+1044.42L537.87+566.39L546.598+440.424L610.454+213.863L213.006+199.984Z" opacity="0.171157" fill="#ffffff"/>
</g>
<g id="Layer 5" vectornator:layerName="Layer 5" visibility="hidden">
<path d="M6.94066+148.543L8.71708+116.186C8.71708+116.186+52.2395+182.56+514.11+183.39C928.093+184.134+994.633+118.675+994.633+118.675L993.744+144.395C993.744+144.395+885.393+222.575+519.439+217.407C108.197+211.599+6.94066+148.543+6.94066+148.543Z" opacity="1" fill="#ffffff"/>
</g>
<g id="Layer 1" vectornator:layerName="Layer 1" visibility="hidden">
<path stroke="#000000" stroke-width="10.36" d="M234.5+103.156C234.5+76.0078+363.099+54+521.734+54C680.368+54+808.967+76.0078+808.967+103.156C808.967+130.304+680.368+152.312+521.734+152.312C363.099+152.312+234.5+130.304+234.5+103.156Z" fill="none" stroke-linecap="round" opacity="0" stroke-linejoin="round"/>
<path stroke="#000000" stroke-width="10.46" d="M7.57438+105.88C7.57438+105.88+2.18859+119.575+7.39172+147.089C91.9867+221.163+790.134+246.817+991.773+150.278C995.949+114.234+994.071+109.459+994.071+109.459" fill="none" stroke-linecap="round" opacity="1" stroke-linejoin="round"/>
<path stroke="#000000" stroke-width="10.36" d="M33.7419+161.974C33.7419+161.974+39.7675+163.737+46.7773+178.834C70.8427+230.662+74.8536+399.884+74.8536+399.884L85.63+399.438L95.1834+520.128L105.356+520.936L144.421+1008.77L153.622+1009.01L172.267+1293.42L184.995+1296.88L187.116+1346.91C276.834+1397.61+497.082+1394.81+497.082+1394.81" fill="none" stroke-linecap="round" opacity="1" stroke-linejoin="round"/>
<path stroke="#000000" stroke-width="4.09" d="M76.4536+385.385C117.159+406.673+208.082+429.154+381.048+437.649C210.944+435.503+128.779+419.695+76.096+401.089" fill="#000000" stroke-linecap="butt" opacity="1" stroke-linejoin="round"/>
<path stroke="#000000" stroke-width="4.09" d="M96.4841+508.34C137.19+529.628+170.431+538.372+322.219+560.053C182.22+549.728+148.81+542.65+96.1264+524.044" fill="#000000" stroke-linecap="butt" opacity="1" stroke-linejoin="round"/>
<path stroke="#000000" stroke-width="4.09" d="M145.915+992.935C186.62+1014.22+277.544+1036.7+450.509+1045.2C280.405+1043.05+198.24+1027.24+145.557+1008.64" fill="#000000" stroke-linecap="butt" opacity="1" stroke-linejoin="round"/>
<path stroke="#000000" stroke-width="4.09" d="M172.833+1279.58C187.639+1288.4+223.5+1316.31+350.294+1327.88C234.173+1321.49+225.158+1313.89+172.475+1295.28" fill="#000000" stroke-linecap="butt" opacity="1" stroke-linejoin="round"/>
<path stroke="#000000" stroke-width="10.36" d="M966.935+161.423C966.935+161.423+960.909+163.186+953.9+178.283C929.834+230.111+925.823+399.333+925.823+399.333L915.047+398.887L905.494+519.577L895.321+520.385L856.256+1008.22L847.055+1008.46L828.409+1292.86L815.682+1296.33L813.561+1346.36C723.843+1397.06+495.256+1394.81+495.256+1394.81" fill="none" stroke-linecap="round" opacity="1" stroke-linejoin="round"/>
<path stroke="#000000" stroke-width="4.09" d="M924.223+384.834C883.518+406.122+792.595+428.603+619.629+437.098C789.733+434.952+871.898+419.144+924.581+400.537" fill="#000000" stroke-linecap="butt" opacity="1" stroke-linejoin="round"/>
<path stroke="#000000" stroke-width="4.09" d="M904.193+507.789C863.487+529.077+830.246+537.821+678.458+559.501C818.457+549.177+851.867+542.099+904.551+523.493" fill="#000000" stroke-linecap="butt" opacity="1" stroke-linejoin="round"/>
<path stroke="#000000" stroke-width="4.09" d="M854.762+992.384C814.057+1013.67+723.133+1036.15+550.168+1044.65C720.272+1042.5+802.437+1026.69+855.12+1008.09" fill="#000000" stroke-linecap="butt" opacity="1" stroke-linejoin="round"/>
<path stroke="#000000" stroke-width="10.36" d="M7.67419+105.691C8.7386+110.066-6.01888+179.623+511.904+186.075C985.171+179.236+992.727+113.511+995.598+107.553" fill="none" stroke-linecap="round" opacity="1" stroke-linejoin="round"/>
<path stroke="#000000" stroke-width="4.09" d="M827.844+1279.03C813.038+1287.84+777.177+1315.76+650.383+1327.32C766.504+1320.94+775.519+1313.34+828.202+1294.73" fill="#000000" stroke-linecap="butt" opacity="1" stroke-linejoin="round"/>
</g>
<g id="Background" vectornator:layerName="Background">
<path d="M503.396+7.72403C503.396+7.72403+15.3214+11.5631+15.9095+95.9732C16.5026+181.1+510.926+194.002+510.926+194.002C510.926+194.002+1007.79+189.935+993.327+97.8509C979.739+11.3617+503.396+7.72403+503.396+7.72403Z" opacity="1" fill="#ffffff"/>
<path d="M585.136+192.056C585.136+192.056+990.41+183.75+991.023+96.1624C991.509+26.8274+610.232+11.5043+610.232+11.5043L585.136+192.056Z" opacity="1" fill="#d6cbcb"/>
<path d="M339.691+9.83874C339.691+9.83874+12.187+32.3642+11.1997+96.5851C10.1339+165.914+362.9+186.156+362.9+186.156L339.691+9.83874Z" opacity="1" fill="#d6cbcb"/>
<path stroke="#000000" stroke-width="10.36" d="M7.7987+99.6463C7.7987+47.6412+228.958+5.48278+501.773+5.48278C774.587+5.48278+995.747+47.6412+995.747+99.6463C995.747+151.651+774.587+193.81+501.773+193.81C228.958+193.81+7.7987+151.651+7.7987+99.6463Z" fill="none" stroke-linecap="round" opacity="1" stroke-linejoin="round"/>
<path stroke="#000000" stroke-width="4.09" d="M927.098+145.31C912.271+134.78+756.679+77.9549+584.794+71.4804C720.143+71.4804+892.345+115.85+945.102+138.068" fill="#000000" stroke-linecap="butt" opacity="1" stroke-linejoin="round"/>
<path stroke="#000000" stroke-width="4.09" d="M66.3861+142.535C81.2129+132.005+236.805+75.1801+408.69+68.7057C273.341+68.7057+101.138+113.075+48.3817+135.293" fill="#000000" stroke-linecap="butt" opacity="1" stroke-linejoin="round"/>
</g>
</svg>
