<?xml version="1.0" encoding="UTF-8" standalone="no"?>
<!-- Created with Vectornator for iOS (http://vectornator.io/) -->

<svg
   xmlns:vectornator="http://vectornator.io"
   xmlns:dc="http://purl.org/dc/elements/1.1/"
   xmlns:cc="http://creativecommons.org/ns#"
   xmlns:rdf="http://www.w3.org/1999/02/22-rdf-syntax-ns#"
   xmlns:svg="http://www.w3.org/2000/svg"
   xmlns="http://www.w3.org/2000/svg"
   xmlns:sodipodi="http://sodipodi.sourceforge.net/DTD/sodipodi-0.dtd"
   xmlns:inkscape="http://www.inkscape.org/namespaces/inkscape"
   style="clip-rule:evenodd;fill-rule:evenodd;stroke-linecap:round;stroke-linejoin:round"
   xml:space="preserve"
   version="1.1"
   viewBox="0 0 3413.3333 4096"
   height="1200"
   width="1000"
   id="svg78"
   sodipodi:docname="cup_front.svg"
   inkscape:version="0.92.4 (5da689c313, 2019-01-14)"><sodipodi:namedview
   pagecolor="#ffffff"
   bordercolor="#666666"
   borderopacity="1"
   objecttolerance="10"
   gridtolerance="10"
   guidetolerance="10"
   inkscape:pageopacity="0"
   inkscape:pageshadow="2"
   inkscape:window-width="1920"
   inkscape:window-height="1017"
   id="namedview80"
   showgrid="false"
   inkscape:zoom="0.27812867"
   inkscape:cx="581.56342"
   inkscape:cy="660.20334"
   inkscape:window-x="-8"
   inkscape:window-y="-8"
   inkscape:window-maximized="1"
   inkscape:current-layer="svg78" />
<metadata
   id="metadata2">
<vectornator:setting
   key="DisplayWhiteBackground"
   value="0" />
<vectornator:setting
   key="RulersVisible"
   value="1" />
<vectornator:setting
   key="GridSpacing"
   value="1" />
<vectornator:setting
   key="Units"
   value="Pixels" />
<vectornator:setting
   key="DynamicGuides"
   value="0" />
<vectornator:setting
   key="SnapToPoints"
   value="0" />
<vectornator:setting
   key="SnapToGrid"
   value="0" />
<vectornator:setting
   key="SnapToGuides"
   value="1" />
<vectornator:setting
   key="SnapToEdges"
   value="0" />
<rdf:RDF><cc:Work
     rdf:about=""><dc:format>image/svg+xml</dc:format><dc:type
       rdf:resource="http://purl.org/dc/dcmitype/StillImage" /><dc:title></dc:title></cc:Work></rdf:RDF></metadata>
<defs
   id="defs4" />
<g
   id="Layer 2"
   vectornator:layerName="Layer 2"
   transform="matrix(5.8201666,0,0,4.7473074,-1325.8693,-228.62169)">
<path
   d="m 252.072,139.081 c 21.222,44.03 20.768,141.911 20.768,141.911 l 6.761,4.632 3.85,67.389 7.461,9.386 21.483,295.399 6.756,9.892 9.892,171.79 8.445,5.308 0.965,30.642 c 0,0 45.286,25.86 182.836,28.829 C 678.6,907.654 703.6,873.452 703.6,873.452 l -1.246,-25.749 9.967,-9.552 9.552,-167.367 7.408,-9.389 21.196,-293.605 7.065,-10.206 5.495,-66.336 5.496,-11.383 c 0,0 1.962,-102.84 22.067,-146.515 0,0 -61.601,41.212 -273.463,36.99 -210.493,-4.195 -265.065,-31.259 -265.065,-31.259 z"
   id="path6"
   inkscape:connector-curvature="0"
   style="opacity:1;fill:#d9190b" />
<path
   d="M 820.938,479.871"
   id="path8"
   inkscape:connector-curvature="0"
   style="opacity:1;fill:#d9190b" />
</g>
<g
   id="Layer 3"
   vectornator:layerName="Layer 3"
   transform="matrix(5.8201666,0,0,4.7473074,-1325.8693,-228.62169)">
<path
   d="m 595.865,171.438 47.614,135.225 1.977,78.404 c 0,0 47.958,-9.232 56.421,42.059 11.986,72.647 -5.899,242.352 -5.899,242.352 -53.388,18.472 -128.682,17.148 -128.682,17.148 0,0 92.741,-1.213 105.704,39.996 20.166,64.105 10.952,121.893 10.952,121.893 -19.786,11.812 -76.591,16.117 -76.591,16.117 l 3.01,34.607 c 0,0 74.637,-2.674 91.674,-24.06 4.809,-6.036 2.025,-25.524 2.025,-25.524 0,0 12.003,-18.61 9.28,-12.528 -2.723,6.082 9.28,-168.665 9.28,-168.665 l 6.96,-7.192 20.634,-297.895 8.607,-8 4.148,-71.308 6.141,-6.321 c 0,0 4.29,-107.22 19.107,-137.257"
   id="path11"
   inkscape:connector-curvature="0"
   style="opacity:1;fill:#a90500" />
</g>
<g
   id="Layer 4"
   vectornator:layerName="Layer 4"
   transform="matrix(5.8201666,0,0,4.7473074,-1325.8693,-228.62169)">
<path
   d="m 334.642,757.276 c -1.974,-36.016 -1.566,-65.499 0.91,-65.852 2.477,-0.353 6.085,28.556 8.059,64.572 1.974,36.015 1.567,65.498 -0.91,65.852 -2.477,0.353 -6.084,-28.557 -8.059,-64.572 z"
   id="path14"
   inkscape:connector-curvature="0"
   style="opacity:0.47702104;fill:#ffffff" />
<path
   d="m 708.147,754.934 c 1.974,-36.016 1.567,-65.499 -0.91,-65.852 -2.477,-0.353 -6.084,28.557 -8.059,64.572 -1.974,36.016 -1.566,65.498 0.91,65.852 2.477,0.353 6.085,-28.557 8.059,-64.572 z"
   id="path16"
   inkscape:connector-curvature="0"
   style="opacity:0.47702104;fill:#ffffff" />
<path
   d="m 312.332,516.213 c -4.735,-71.836 -6.589,-130.72 -4.141,-131.521 2.448,-0.8 8.27,56.786 13.005,128.622 4.734,71.837 6.588,130.721 4.141,131.522 -2.448,0.8 -8.27,-56.786 -13.005,-128.623 z"
   id="path18"
   inkscape:connector-curvature="0"
   style="opacity:0.47702104;fill:#ffffff" />
<path
   d="m 731.07,517.487 c 5.367,-71.792 7.74,-130.658 5.299,-131.48 -2.44,-0.822 -8.77,56.711 -14.137,128.503 -5.367,71.792 -7.739,130.657 -5.299,131.479 2.441,0.823 8.77,-56.71 14.137,-128.502 z"
   id="path20"
   inkscape:connector-curvature="0"
   style="opacity:0.47702104;fill:#ffffff" />
<path
   d="m 290.956,325.061 c -0.715,-14.147 0.028,-25.601 1.66,-25.583 1.632,0.018 3.535,11.502 4.25,25.649 0.716,14.147 -0.028,25.601 -1.66,25.583 -1.632,-0.018 -3.535,-11.501 -4.25,-25.649 z"
   id="path22"
   inkscape:connector-curvature="0"
   style="opacity:0.47702104;fill:#ffffff" />
<path
   d="m 752.023,324.091 c 1.519,-14.084 1.428,-25.562 -0.203,-25.637 -1.63,-0.074 -4.183,11.282 -5.702,25.366 -1.519,14.084 -1.428,25.561 0.202,25.636 1.631,0.075 4.184,-11.282 5.703,-25.365 z"
   id="path24"
   inkscape:connector-curvature="0"
   style="opacity:0.47702104;fill:#ffffff" />
<path
   d="m 346.343,862.934 c -0.077,-4.934 0.743,-8.601 1.833,-8.191 1.09,0.411 2.036,4.743 2.113,9.676 0.077,4.934 -0.743,8.601 -1.833,8.191 -1.09,-0.41 -2.036,-4.742 -2.113,-9.676 z"
   id="path26"
   inkscape:connector-curvature="0"
   style="opacity:0.47702104;fill:#ffffff" />
<path
   d="m 696.561,862.562 c 0.077,-4.934 -0.743,-8.601 -1.833,-8.191 -1.089,0.41 -2.035,4.742 -2.113,9.676 -0.077,4.934 0.744,8.601 1.833,8.191 1.09,-0.411 2.036,-4.743 2.113,-9.676 z"
   id="path28"
   inkscape:connector-curvature="0"
   style="opacity:0.47702104;fill:#ffffff" />
<path
   d="m 276.853,192.883 c 3.765,28.671 4.912,79.471 7.271,79.66 3.301,0.264 3.762,-50.994 -0.003,-79.665 -3.765,-28.671 -15.829,-39.775 -15.829,-39.775 0,0 4.796,11.108 8.561,39.78 z"
   id="path30"
   inkscape:connector-curvature="0"
   style="opacity:0.47702104;fill:#ffffff" />
<path
   d="m 766.974,192.934 c -3.765,28.672 -4.911,79.472 -7.271,79.661 -3.301,0.264 -3.762,-50.994 0.003,-79.665 3.765,-28.671 15.829,-39.776 15.829,-39.776 0,0 -4.796,11.109 -8.561,39.78 z"
   id="path32"
   inkscape:connector-curvature="0"
   style="opacity:0.47702104;fill:#ffffff" />
<path
   d="m 354.226,160.973 67.892,147.213 7.894,0.677 7.443,79.617 h 4.736 l 12.556,297.555 7.574,1.017 4.176,177.776 4.22,0.844 -0.422,34.181 44.069,4.855 15.086,-217.349 13.94,-297.983 5.082,-78.522 37.182,-141.229 z"
   id="path34"
   inkscape:connector-curvature="0"
   style="opacity:0.171157;fill:#ffffff" />
</g>
<g
   id="Layer 5"
   vectornator:layerName="Layer 5"
   transform="matrix(5.8201666,0,0,4.7473074,-1325.8693,-228.62169)">
<path
   d="m 234.237,128.907 1.035,-20.171 c 0,0 25.342,41.376 294.282,41.893 241.057,0.463 279.802,-40.341 279.802,-40.341 l -0.517,16.033 c 0,0 -63.092,48.734 -276.181,45.513 -239.461,-3.621 -298.421,-42.927 -298.421,-42.927 z"
   id="path37"
   inkscape:connector-curvature="0"
   style="opacity:1;fill:#ffffff" />
</g>
<g
   id="Layer 6"
   vectornator:layerName="Layer 6"
   transform="matrix(5.8201666,0,0,4.7473074,-1325.8693,-228.62169)">
<path
   d="m 522.678,55.17 c 0,0 -283.804,2.0041 -283.462,46.068 0.345,44.439 289.103,47.479 289.103,47.479 0,0 287.654,1.572 279.241,-46.498 C 799.659,57.0689 522.678,55.17 522.678,55.17 Z"
   id="path40"
   inkscape:connector-curvature="0"
   style="opacity:1;fill:#ffffff" />
<path
   d="m 427.487,56.2739 c 0,0 -194.644,2.4745 -191.009,45.2841 3.064,36.091 204.628,46.305 204.628,46.305 z"
   id="path42"
   inkscape:connector-curvature="0"
   style="opacity:1;fill:#d6cbcb" />
<path
   d="m 571.746,149.707 c 0,0 238.109,-5.56 234.475,-48.37 C 803.156,65.2463 584.166,59.6582 584.166,59.6582 Z"
   id="path44"
   inkscape:connector-curvature="0"
   style="opacity:1;fill:#d6cbcb" />
<path
   d="M 700.894,-155.699"
   id="path46"
   inkscape:connector-curvature="0"
   style="opacity:1;fill:#ffffff" />
</g>
<g
   id="Layer 1"
   vectornator:layerName="Layer 1"
   transform="matrix(5.8201666,0,0,4.7473074,-1325.8693,-228.62169)">
<path
   d="M 234.5,103.156 C 234.5,76.0078 363.099,54 521.734,54 c 158.634,0 287.233,22.0078 287.233,49.156 0,27.148 -128.599,49.156 -287.233,49.156 -158.635,0 -287.234,-22.008 -287.234,-49.156 z"
   id="path49"
   inkscape:connector-curvature="0"
   style="opacity:1;fill:none;stroke:#000000;stroke-width:10.35999966;stroke-linecap:round;stroke-linejoin:round" />
<path
   d="m 234.606,102.312 c 0,0 -3.136,8.537 -0.106,25.688 49.258,46.175 455.779,62.167 573.191,1.988 2.431,-22.468 1.338,-25.445 1.338,-25.445"
   id="path51"
   inkscape:connector-curvature="0"
   style="opacity:1;fill:none;stroke:#000000;stroke-width:10.46000004;stroke-linecap:round;stroke-linejoin:round" />
<path
   d="m 249.843,137.279 c 0,0 3.509,1.099 7.591,10.51 14.013,32.307 16.348,137.793 16.348,137.793 l 6.275,-0.277 5.563,75.233 5.923,0.504 22.747,304.099 5.358,0.148 10.857,177.286 7.411,2.161 1.235,31.188 c 52.241,31.601 180.489,29.855 180.489,29.855"
   id="path53"
   inkscape:connector-curvature="0"
   style="opacity:1;fill:none;stroke:#000000;stroke-width:10.35999966;stroke-linecap:round;stroke-linejoin:round" />
<path
   d="m 274.714,276.545 c 23.702,13.27 76.645,27.284 177.36,32.579 -99.049,-1.338 -146.892,-11.192 -177.569,-22.79"
   id="path55"
   inkscape:connector-curvature="0"
   style="opacity:1;fill:#000000;stroke:#000000;stroke-width:4.09000015;stroke-linecap:butt;stroke-linejoin:round" />
<path
   d="m 286.377,353.19 c 23.702,13.27 43.058,18.72 131.442,32.235 C 336.3,378.99 316.846,374.577 286.169,362.979"
   id="path57"
   inkscape:connector-curvature="0"
   style="opacity:1;fill:#000000;stroke:#000000;stroke-width:4.09000015;stroke-linecap:butt;stroke-linejoin:round" />
<path
   d="m 315.16,655.267 c 23.702,13.271 76.645,27.284 177.361,32.58 -99.049,-1.338 -146.893,-11.192 -177.569,-22.791"
   id="path59"
   inkscape:connector-curvature="0"
   style="opacity:1;fill:#000000;stroke:#000000;stroke-width:4.09000015;stroke-linecap:butt;stroke-linejoin:round" />
<path
   d="m 330.834,833.949 c 8.621,5.497 29.502,22.898 103.333,30.107 -67.616,-3.978 -72.865,-8.72 -103.541,-20.318"
   id="path61"
   inkscape:connector-curvature="0"
   style="opacity:1;fill:#000000;stroke:#000000;stroke-width:4.09000015;stroke-linecap:butt;stroke-linejoin:round" />
<path
   d="m 268.567,125.545 c 8.622,-5.497 99.095,-35.1612 199.041,-38.541 -78.702,0 -178.833,23.162 -209.51,34.76"
   id="path63"
   inkscape:connector-curvature="0"
   style="opacity:1;fill:#000000;stroke:#000000;stroke-width:4.09000015;stroke-linecap:butt;stroke-linejoin:round" />
<path
   d="m 769.049,126.993 c -8.621,-5.496 -99.094,-35.1607 -199.041,-38.5405 78.702,0 178.834,23.1615 209.511,34.7605"
   id="path65"
   inkscape:connector-curvature="0"
   style="opacity:1;fill:#000000;stroke:#000000;stroke-width:4.09000015;stroke-linecap:butt;stroke-linejoin:round" />
<path
   d="m 793.228,136.935 c 0,0 -3.509,1.099 -7.59,10.51 -14.013,32.308 -16.349,137.794 -16.349,137.794 l -6.275,-0.278 -5.563,75.233 -5.923,0.504 -22.747,304.099 -5.357,0.149 -10.858,177.285 -7.41,2.162 -1.236,31.188 c -52.241,31.601 -185.344,30.198 -185.344,30.198"
   id="path67"
   inkscape:connector-curvature="0"
   style="opacity:1;fill:none;stroke:#000000;stroke-width:10.35999966;stroke-linecap:round;stroke-linejoin:round" />
<path
   d="m 768.357,276.201 c -23.702,13.27 -76.645,27.284 -177.36,32.579 99.049,-1.338 146.892,-11.192 177.569,-22.79"
   id="path69"
   inkscape:connector-curvature="0"
   style="opacity:1;fill:#000000;stroke:#000000;stroke-width:4.09000015;stroke-linecap:butt;stroke-linejoin:round" />
<path
   d="m 756.694,352.846 c -23.702,13.271 -43.058,18.721 -131.442,32.236 81.519,-6.436 100.974,-10.848 131.65,-22.447"
   id="path71"
   inkscape:connector-curvature="0"
   style="opacity:1;fill:#000000;stroke:#000000;stroke-width:4.09000015;stroke-linecap:butt;stroke-linejoin:round" />
<path
   d="m 727.911,654.924 c -23.702,13.27 -76.645,27.284 -177.36,32.579 99.049,-1.338 146.892,-11.192 177.568,-22.79"
   id="path73"
   inkscape:connector-curvature="0"
   style="opacity:1;fill:#000000;stroke:#000000;stroke-width:4.09000015;stroke-linecap:butt;stroke-linejoin:round" />
<path
   d="m 712.237,833.605 c -8.621,5.497 -29.502,22.898 -103.333,30.107 67.616,-3.977 72.865,-8.719 103.542,-20.318"
   id="path75"
   inkscape:connector-curvature="0"
   style="opacity:1;fill:#000000;stroke:#000000;stroke-width:4.09000015;stroke-linecap:butt;stroke-linejoin:round" />
</g>
</svg>